# xmcd CD database file
#
# Track frame offsets:
#	150
#	15096
#	37061
#	50732
#	59448
#	82301
#	115675
#	196728
#	204790
#	229186
#	247684
#	261727
#	278370
#	294847
#	312894
#
# Disc length: 4331 seconds
#
# Revision: 0
# Processed by: cddbd v1.5.2PL0 Copyright (c) Steve Scherf et al.
# Submitted via: CDex 1.51
#
DISCID=c710e90f
DTITLE=Lone Star Wind Orchestra - American Tapestry
DYEAR=2008
DGENRE=Wind Band
TTITLE0=Arr. John Williams - Star-Spangled Banner
TTITLE1=Joseph Willcox Jenkins - American Overture
TTITLE2=Howard Hanson - Suite from 'Merry Mount' I. Overture
TTITLE3=Howard Hanson - Suite from 'Merry Mount' II. Children's Dance
TTITLE4=Howard Hanson - Suite from 'Merry Mount' III. Love Duet
TTITLE5=Howard Hanson - Suite from 'Merry Mount' IV. Prelude to Act II and Maypole Dance
TTITLE6=George Gershwin - Rhapsody in Blue
TTITLE7=Christopher Tucker - Ceremonial Fanfare
TTITLE8=Stephen Bryant - Radiant Joy
TTITLE9=Robert Russell Bennett - Suite of Old American Dances I. Cake Walk
TTITLE10=Robert Russell Bennett - Suite of Old American Dances II. Schottische
TTITLE11=Robert Russell Bennett - Suite of Old American Dances III. Western One Step
TTITLE12=Robert Russell Bennett - Suite of Old American Dances IV. Wallflower Waltz
TTITLE13=Robert Russell Bennett - Suite of Old American Dances V. Rag
TTITLE14=John Philip Sousa - The Washington Post March
EXTD=YEAR: 2008
EXTT0=
EXTT1=
EXTT2=
EXTT3=
EXTT4=
EXTT5=
EXTT6=
EXTT7=
EXTT8=
EXTT9=
EXTT10=
EXTT11=
EXTT12=
EXTT13=
EXTT14=
PLAYORDER=
